<svg id="Camada_1" data-name="Camada 1" xmlns="http://www.w3.org/2000/svg" viewBox="0 0 1080 1080"><defs><style>.cls-1{fill:#f2f2f2;}.cls-2{fill:#fff;}.cls-2,.cls-3,.cls-4,.cls-5,.cls-6{stroke:#5050ea;stroke-miterlimit:10;}.cls-2,.cls-3,.cls-4{stroke-width:7.13px;}.cls-3,.cls-5,.cls-6{fill:none;}.cls-4{fill:#5050ea;}.cls-5{stroke-width:21.3px;}.cls-6{stroke-width:18.24px;}</style></defs><title>icones cinzas</title><circle class="cls-1" cx="540" cy="540" r="436.32"/><path class="cls-2" d="M553.06,224.91,358.9,199.09a7.53,7.53,0,0,0-8.26,6.7L271,805.2a7.52,7.52,0,0,0,6.23,8.62l457,60.76a7.52,7.52,0,0,0,8.26-6.69l79.69-599.41a7.54,7.54,0,0,0-6.23-8.63L621.77,234"/><polyline class="cls-3" points="565.96 304.05 506.59 568.1 321.2 526.41 384.77 243.68 487.48 266.77"/><path class="cls-4" d="M620.06,249.37l-.32,0L625,209.5a34.67,34.67,0,0,0-29.79-38.93h0a34.66,34.66,0,0,0-38.92,29.79L551,240.19l-.31,0-17.61,1.52a58.89,58.89,0,0,0-53.33,50.93h0l195.06,25.93h0a58.9,58.9,0,0,0-38.17-63.09Z"/><line class="cls-5" x1="558.26" y1="389.63" x2="753.97" y2="415.65"/><line class="cls-5" x1="552.33" y1="434.28" x2="748.03" y2="460.3"/><line class="cls-5" x1="546.39" y1="478.93" x2="690.79" y2="498.13"/><line class="cls-5" x1="540.46" y1="523.58" x2="736.16" y2="549.6"/><line class="cls-5" x1="528.58" y1="612.89" x2="653.98" y2="629.56"/><line class="cls-5" x1="522.65" y1="657.54" x2="718.35" y2="683.55"/><line class="cls-5" x1="516.71" y1="702.19" x2="712.41" y2="728.2"/><line class="cls-5" x1="510.78" y1="746.84" x2="706.48" y2="772.85"/><line class="cls-6" x1="333.49" y1="700.55" x2="425.44" y2="712.77"/><line class="cls-6" x1="339.43" y1="655.9" x2="482.93" y2="674.98"/><line class="cls-6" x1="345.36" y1="611.25" x2="488.86" y2="630.32"/><circle class="cls-4" cx="451.44" cy="373.95" r="44.39"/><path class="cls-4" d="M438.6,432.68c-49.46-10.82-100.44,31.17-114.28,94.44L503.1,566.81C516.93,503.54,488.06,443.49,438.6,432.68Z"/></svg>