<svg id="Camada_1" data-name="Camada 1" xmlns="http://www.w3.org/2000/svg" viewBox="0 0 1080 1080"><defs><style>.cls-1{fill:#f2f2f2;}.cls-2{fill:#5050ea;}.cls-2,.cls-3,.cls-5{stroke:#5050ea;}.cls-2,.cls-3,.cls-4,.cls-5{stroke-miterlimit:10;stroke-width:7.13px;}.cls-3{fill:#fff;}.cls-4,.cls-5{fill:none;}.cls-4{stroke:#fff;stroke-linecap:round;}</style></defs><title>icones cinzas</title><circle class="cls-1" cx="540" cy="540" r="436.32"/><path class="cls-2" d="M615.57,733.31a85.39,85.39,0,0,0,10.19-40.58v-.94a33.84,33.84,0,0,1,14.17-28,171.61,171.61,0,0,0-106.63-311c-87.9,3.35-160,74.21-164.68,162a171.4,171.4,0,0,0,71.65,149.11c9.16,6.55,14,17.36,14,28.62v.19a85.38,85.38,0,0,0,11.07,42.18"/><path class="cls-3" d="M589.74,852.66H488.53l-9.23-7.31a42.71,42.71,0,0,1-16.2-33.48V728.93H616.9v82.43a42.69,42.69,0,0,1-18.08,34.88Z"/><path class="cls-3" d="M544.47,886.25H533.31a37.86,37.86,0,0,1-29.8-14.5l-15-19.09H589.74L573.9,872.21A37.88,37.88,0,0,1,544.47,886.25Z"/><polyline class="cls-4" points="511.44 729.89 511.44 661.01 470.09 501.47"/><polyline class="cls-4" points="568.55 729.89 568.55 661.01 609.91 503.38"/><path class="cls-4" d="M470.09,501.47c46.69,9.11,86.72,10.89,139.82,1.91"/><line class="cls-5" x1="463.1" y1="756.17" x2="616.9" y2="756.17"/><line class="cls-5" x1="463.1" y1="802.34" x2="616.9" y2="802.34"/><line class="cls-5" x1="463.1" y1="779.26" x2="616.9" y2="779.26"/><line class="cls-5" x1="465.32" y1="825.42" x2="614.5" y2="825.42"/><line class="cls-5" x1="281.33" y1="319.69" x2="352.11" y2="357.45"/><line class="cls-5" x1="798.67" y1="319.69" x2="727.89" y2="357.45"/><line class="cls-5" x1="539.14" y1="285.19" x2="539.14" y2="205.15"/></svg>