<svg id="Camada_1" data-name="Camada 1" xmlns="http://www.w3.org/2000/svg" xmlns:xlink="http://www.w3.org/1999/xlink" viewBox="0 0 1080 1080"><defs><style>.cls-1,.cls-10,.cls-5,.cls-7,.cls-8{fill:none;}.cls-2{fill:#f2f2f2;}.cls-3{clip-path:url(#clip-path);}.cls-4{fill:#fff;}.cls-10,.cls-5{stroke:#5050ea;}.cls-10,.cls-5,.cls-7,.cls-8{stroke-linecap:round;stroke-linejoin:round;}.cls-5{stroke-width:7.13px;}.cls-6{fill:#5050ea;}.cls-7,.cls-8{stroke:#f2f2f2;}.cls-7{stroke-width:5.48px;}.cls-10,.cls-8{stroke-width:6.48px;}.cls-9{fill:#a8a8ef;}</style><clipPath id="clip-path"><circle class="cls-1" cx="540" cy="540" r="436.32"/></clipPath></defs><title>icones cinzas</title><circle class="cls-2" cx="540" cy="540" r="436.32"/><g class="cls-3"><path class="cls-4" d="M668.73,348a16.18,16.18,0,0,0-2.91-3.72l-.13-.15v0C662,340.6,656,338,646.62,336.73c-13.16-1.8-23.3,2.65-30.65,9.78,1.94-20.18,1.21-35.89-24.21-38.62-28.07-3-30.09,15.8-32.58,39-.25,2.32-.57,5-.91,8,.13-6.82.13-12.89.13-17.34,0-23.35,0-42.27-28.22-42.27S502,314.21,502,337.56c0-23.35,0-42.27-28.23-42.27s-28.23,18.92-28.23,42.27c0,2.9.15,6.29.45,10l26.16,1.49-29,0c-43.34,0-63.51,96.6-63.51,118.76,0,11.1,33.62,66.81,83.51,109.52h0l-18,386.69c30.39,6.71,60.26,12.27,92.67,12.27s71.1-2.78,101.62-9.54L626.68,606.94c23.79-23.79,40.61-93,46.49-126.44C677.46,456.16,687.75,376.24,668.73,348Z"/><path class="cls-5" d="M665.3,342.73c23.12,24,12,110.82,7.48,136.37-7.17,40.74-30.57,134.71-63,134.71"/><path class="cls-5" d="M502.4,398.85a27.79,27.79,0,0,1-1.07,5c-3.3,11.35-23.15,10.7-30.94,10.7"/><path class="cls-5" d="M445.54,346.16c-.29-3.71-.44-7.1-.44-10,0-23.34,0-42.27,28.23-42.27s28.23,18.93,28.23,42.27c0,2.92.28,5.79.63,11.42"/><path class="cls-5" d="M501.44,345.8c.06-3.65.12-6.93.12-9.64,0-23.34,0-42.27,28.22-42.27S558,312.82,558,336.16c0,16,0,52.45-5.88,72.41-2.66,9.06-38.79,7-42.93-.59a39.14,39.14,0,0,1-4-10.5"/><path class="cls-5" d="M614.92,351.54c-1.75,16.2-3.37,45.46-12.27,64.56-5.87,12.6-39.39,11.42-44.13-3.89-6-19.55-1.4-51.26.26-66.71,2.5-23.21,4.52-42,32.59-39S617.41,328.33,614.92,351.54Z"/><path class="cls-5" d="M669.56,373.15c-1.73,12.65-8.69,35.55-15.75,51.46-5.23,11.81-37.51,7.8-39.93-2.31-4.07-17-2-44-.26-56.79,2.56-18.78,4.64-34,32.61-30.18S672.12,354.37,669.56,373.15Z"/><path class="cls-5" d="M473.58,584.83c-55.81-43.45-94.34-106.5-94.34-118.39,0-22.16,20.17-118.76,63.51-118.76s103.5-.26,103.5-.26c0,22.16-35.13,59.39-78.48,59.39,0,0,1,11.61-1.19,33-.8,7.66-13.18,14-21.48,26.36"/><line class="cls-5" x1="639.39" y1="961.74" x2="626.29" y2="605.58"/><line class="cls-5" x1="462.74" y1="575.97" x2="445.1" y2="959.68"/><path class="cls-5" d="M470.39,414.56c33.1,17.28,85.12,39.64,93.5,79.28"/><line class="cls-5" x1="657.92" y1="414.56" x2="670.95" y2="414.56"/><path class="cls-5" d="M540.19,414.17c15.32,4.4,45.69,26.74,57.81,33.8"/><path class="cls-6" d="M935,492.55a14.79,14.79,0,0,0-2.65-3.38l-.12-.14v0c-3.4-3.23-8.81-5.58-17.34-6.75-12-1.64-21.21,2.41-27.9,8.9,1.77-18.36,1.11-32.66-22-35.14-25.54-2.75-27.38,14.37-29.65,35.49-.22,2.11-.52,4.59-.82,7.28.11-6.21.12-11.72.12-15.78,0-21.24,0-38.45-25.68-38.45s-25.69,17.21-25.69,38.45c0-21.24,0-38.45-25.68-38.45s-25.68,17.21-25.68,38.45c0,2.64.13,5.73.4,9.1l23.81,1.36-26.35,0c-39.44,0-57.79,87.9-57.79,108.06,0,10.1,30.59,60.79,76,99.65h0L731.51,1049.1c27.65,6.1,54.83,15.14,84.31,15.14s64.7-7.11,92.47-13.27L896.73,728.15c21.64-21.64,36.94-84.63,42.29-115C942.92,591,952.28,518.25,935,492.55Z"/><path class="cls-7" d="M782.67,543.38c-3,10.33-21.06,9.73-28.15,9.73"/><path class="cls-8" d="M731.91,490.88c-.26-3.37-.4-6.46-.4-9.09,0-21.25,0-38.46,25.68-38.46s25.69,17.21,25.69,38.46a66.86,66.86,0,0,0,.25,6.9"/><path class="cls-7" d="M782.82,487.23c0-3.33.06-3,.06-5.44,0-21.25,0-38.46,25.68-38.46s25.68,17.21,25.68,38.46c0,14.56,0,47.71-5.35,65.87-2.42,8.25-35.29,6.37-39.06-.53-1.68-3.08-2-2.72-3-6.76"/><path class="cls-7" d="M886,495.77c-1.59,14.75-3.06,41.37-11.16,58.74C869.51,566,839,564.91,834.71,551c-5.5-17.78-1.28-46.63.24-60.69,2.26-21.11,4.1-38.23,29.64-35.49S888.29,474.65,886,495.77Z"/><path class="cls-7" d="M935.73,515.43c-1.57,11.51-7.9,32.36-14.32,46.83-4.77,10.74-34.13,7.09-36.33-2.1-3.71-15.46-1.83-40.08-.24-51.67,2.33-17.09,4.22-30.93,29.67-27.46S938.06,498.35,935.73,515.43Z"/><path class="cls-7" d="M714,493.84c39.43,0,109.52-1.81,109.52-1.81,0,20.16-32,54-71.4,54,0,0,.92,10.57-1.09,30-.72,7-12,12.75-19.54,24"/><path class="cls-7" d="M754.52,553.11c30.12,15.73,77.45,36.07,85.07,72.14"/><line class="cls-7" x1="925.14" y1="553.12" x2="937" y2="553.11"/><path class="cls-7" d="M818,552.76c13.94,4,41.57,24.33,52.6,30.75"/><path class="cls-9" d="M406.53,589.23a15.34,15.34,0,0,0-2.65-3.39l-.12-.13v0c-3.4-3.23-8.81-5.59-17.35-6.75-12-1.64-21.2,2.41-27.89,8.89,1.76-18.36,1.1-32.65-22-35.14-25.53-2.74-27.37,14.38-29.64,35.5-.23,2.11-.52,4.59-.83,7.28.12-6.21.13-11.73.13-15.78,0-21.24,0-38.46-25.69-38.46s-25.68,17.22-25.68,38.46c0-21.24,0-38.46-25.68-38.46s-25.69,17.22-25.69,38.46c0,2.64.14,5.72.4,9.1l23.81,1.35-26.35,0c-39.43,0-57.78,87.89-57.78,108.06,0,10.1,30.58,60.79,76,99.65h0l-16.41,347.86c27.65,6.09,54.82,15.13,84.31,15.13s64.69-7.11,92.46-13.26L368.27,824.83c21.64-21.64,37-84.63,42.3-115C414.47,687.64,423.83,614.93,406.53,589.23Z"/><path class="cls-10" d="M403.4,584.44c21,21.8,10.9,100.83,6.81,124.08-6.52,37.06-27.82,122.56-57.36,122.56"/><path class="cls-10" d="M255.08,636.47a15.26,15.26,0,0,1-.86,3.59c-3,10.33-21.06,9.73-28.16,9.73"/><path class="cls-10" d="M203.46,587.56c-.27-3.38-.4-6.46-.4-9.1,0-21.24,0-38.46,25.68-38.46s25.68,17.22,25.68,38.46c0,2.66.26,5.27.57,10.39"/><path class="cls-10" d="M254.37,587.15c0-3.33,0-6.22,0-8.69,0-21.24,0-38.46,25.69-38.46s25.68,17.22,25.68,38.46c0,14.57,0,47.72-5.35,65.88-2.42,8.24-35.3,6.37-39.06-.53a35.24,35.24,0,0,1-3.84-9.47"/><path class="cls-10" d="M357.56,592.45c-1.58,14.74-3.06,41.36-11.16,58.74-5.34,11.47-35.84,10.4-40.15-3.54-5.49-17.78-1.27-46.64.24-60.69,2.27-21.12,4.11-38.24,29.65-35.49S359.83,571.33,357.56,592.45Z"/><path class="cls-10" d="M407.28,612.11c-1.57,11.51-7.91,32.35-14.33,46.83-4.76,10.74-34.13,7.09-36.33-2.1-3.7-15.46-1.82-40.08-.24-51.68,2.34-17.08,4.23-30.93,29.67-27.45S409.61,595,407.28,612.11Z"/><path class="cls-10" d="M229,804.72c-50.77-39.54-85.83-96.9-85.83-107.72,0-20.17,18.35-108.06,57.79-108.06s94.17-.24,94.17-.24c0,20.17-32,54-71.41,54,0,0,.93,10.56-1.09,30-.72,7-12,12.75-19.53,24"/><path class="cls-10" d="M219.11,796.65l-16.05,349.13c27.65,6.09,64.35,15.13,93.83,15.13s55.17-7.11,82.94-13.26L368.27,824.83"/><path class="cls-10" d="M226.06,649.79c30.12,15.73,77.45,36.07,85.08,72.14"/><line class="cls-10" x1="396.69" y1="649.79" x2="408.54" y2="649.79"/><path class="cls-10" d="M289.58,649.43c13.93,4,41.57,24.34,52.59,30.76"/></g><path class="cls-6" d="M498.34,353.93c2,7.94,11.7,7.84,18.19,8.29q10.62.72,21.28.39c6.92-.22,17.5.4,19.53-8.23a8.19,8.19,0,0,0-7.43-10.23,29.19,29.19,0,0,0-4.94.29c-1.8.15-3.6.28-5.41.39a218.78,218.78,0,0,1-24.16.06,5.53,5.53,0,0,0-5.48,5.48,5.6,5.6,0,0,0,5.48,5.48q9.12.48,18.25.2,4.56-.14,9.11-.47c1.39-.11,2.79-.22,4.18-.35.66-.06,1.32-.15,2-.17.49,0,1.12.25-.09-.06a3.11,3.11,0,0,1-1.79-1.41s-.49-1.35-.27-.52c-.31-1.16-.13-1.1-.14-.59l.11-.87c-.13.42-.1.39.09-.08.48-.74.07-.15-.06,0-.4.59,1-1,.19-.31.17-.17.93-.57.13-.21,1.16-.53.53-.17.23-.1s-.77.18-1.16.28c-1.27.3.89-.05.06,0-.26,0-.53.05-.8.07l-2.17.13c-1.57.09-3.13.17-4.7.22q-9,.31-18.07-.13c-3.46-.17-6.91-.51-10.36-.77-.91-.07.44,0,.51.08a7.71,7.71,0,0,0-1-.17,6.83,6.83,0,0,0-1.56-.45c1.1-.12.81.6.32.1l-.39-.23.64.5c0-.11-.88-.86-.15-.08.3.41.34.44.12.07.33.88.42,1,.26.47a5.48,5.48,0,0,0-10.57,2.92Z"/></svg>