<svg id="Camada_1" data-name="Camada 1" xmlns="http://www.w3.org/2000/svg" viewBox="0 0 1080 1080"><defs><style>.cls-1{fill:#f2f2f2;}.cls-2{fill:none;}.cls-2,.cls-3,.cls-4{stroke:#5050ea;stroke-miterlimit:10;stroke-width:7.13px;}.cls-3{fill:#fff;}.cls-4,.cls-5{fill:#5050ea;}</style></defs><title>icones cinzas</title><circle class="cls-1" cx="540" cy="540" r="436.32"/><line class="cls-2" x1="832.71" y1="635.11" x2="831.81" y2="504.03"/><path class="cls-3" d="M912.59,473.37,542.4,613.84a6.73,6.73,0,0,1-4.8,0L167.41,473.37a6.77,6.77,0,0,1,0-12.65L537.6,320.26a6.73,6.73,0,0,1,4.8,0L912.59,460.72A6.77,6.77,0,0,1,912.59,473.37Z"/><path class="cls-3" d="M540,614.75,326.9,533.89V682.47c0,51.54,95.41,93.32,213.1,93.32S753.1,734,753.1,682.47V533.89Z"/><line class="cls-2" x1="540" y1="467.05" x2="831.81" y2="504.03"/><circle class="cls-4" cx="832.71" cy="654.84" r="19.73"/><path class="cls-4" d="M843.92,671.07c-1.76.52-9.27,3.5-11.21,3.5-2.27,0-9.18-2.79-11.21-3.5C812,700.91,799,758.68,799,759.34c0,6.54,14.87,11.85,33.22,11.85s33.22-5.31,33.22-11.85C865.43,758.68,853.5,701,843.92,671.07Z"/><circle class="cls-4" cx="540" cy="467.05" r="13.81"/><path class="cls-5" d="M540,707.6c-117.69,0-213.1-41.78-213.1-93.32v66.85c0,51.54,95.41,93.32,213.1,93.32s213.1-41.78,213.1-93.32V614.28C753.1,665.82,657.69,707.6,540,707.6Z"/></svg>