<svg id="Camada_1" data-name="Camada 1" xmlns="http://www.w3.org/2000/svg" viewBox="0 0 1080 1080"><defs><style>.cls-1{fill:#f2f2f2;}.cls-2,.cls-7{fill:#5050ea;}.cls-2,.cls-3,.cls-4,.cls-5,.cls-6{stroke:#5050ea;}.cls-2,.cls-4,.cls-5,.cls-6{stroke-miterlimit:10;}.cls-2,.cls-3,.cls-4,.cls-5{stroke-width:7.12px;}.cls-3,.cls-4{fill:#fff;}.cls-3{stroke-linejoin:round;}.cls-5,.cls-6{fill:none;}.cls-6{stroke-width:5.47px;}</style></defs><title>icones cinzas</title><circle class="cls-1" cx="588.3" cy="540" r="435.73"/><ellipse class="cls-2" cx="441.3" cy="467.17" rx="206.96" ry="94.16" transform="translate(-114.98 788.95) rotate(-76.68)"/><path class="cls-3" d="M858.61,445C696.88,406.7,570.36,319,514.38,281.62c31,34.53,39.88,117.16,18.55,207.24-22,93.07-69.31,164.56-113.8,178.4,63.73-5.09,218-21.66,385.22,6.87,25.71,6.09,58.71-40.27,73.69-103.54S884.32,451.08,858.61,445Z"/><path class="cls-4" d="M685,660.47l-63.07,149a16.33,16.33,0,0,0,11.28,22.25l54.11,12.82a16.33,16.33,0,0,0,19-9.91l65.16-165.57C741.89,665,712.94,662.23,685,660.47Z"/><ellipse class="cls-4" cx="447" cy="469.77" rx="65.7" ry="29.89" transform="translate(-113.13 796.49) rotate(-76.68)"/><path class="cls-4" d="M543.6,420.38l-81.46-14.54c16.06,3.8,22.31,35.51,13.95,70.81s-28.16,60.85-44.23,57.05l79.15,23A445.37,445.37,0,0,0,543.6,420.38Z"/><path class="cls-5" d="M746.72,409.44c39.23,68.33,2.63,199.44-61.72,251"/><line class="cls-5" x1="308.85" y1="289.86" x2="206.55" y2="202.38"/><line class="cls-5" x1="256" y1="571.5" x2="133.48" y2="591.79"/><line class="cls-5" x1="270.88" y1="425.84" x2="55.98" y2="364.39"/><ellipse class="cls-6" cx="637" cy="519.08" rx="85.27" ry="23.52" transform="translate(-44.08 978.8) rotate(-73.2)"/><ellipse class="cls-6" cx="637" cy="519.08" rx="85.27" ry="23.52" transform="translate(-139.74 250.97) rotate(-20.13)"/><ellipse class="cls-6" cx="637" cy="519.08" rx="23.52" ry="85.27" transform="translate(-183.14 468.22) rotate(-35.63)"/><path class="cls-7" d="M636.6,524.08a5.47,5.47,0,1,0-5.47-5.47,5.52,5.52,0,0,0,5.47,5.47Z"/></svg>