<svg id="Camada_1" data-name="Camada 1" xmlns="http://www.w3.org/2000/svg" viewBox="0 0 1080 1080"><defs><style>.cls-1{fill:#f2f2f2;}.cls-2,.cls-3{fill:#fff;}.cls-3,.cls-4,.cls-5{stroke:#5050ea;stroke-miterlimit:10;}.cls-3,.cls-5{stroke-width:7.13px;}.cls-4{fill:#5050ea;stroke-width:5.63px;}.cls-5{fill:none;}</style></defs><title>icones cinzas</title><circle class="cls-1" cx="540" cy="540" r="436.32"/><circle class="cls-2" cx="564.72" cy="412.8" r="182.24"/><path class="cls-3" d="M821,721.53,711,571.46c-.33-.46-.71-.87-1.06-1.31a211.17,211.17,0,0,0,45.15-65.48c47.19-107.13-1.4-232.23-108.53-279.42s-232.23,1.4-279.42,108.53S368.55,566,475.68,613.2a211.26,211.26,0,0,0,166,2,41,41,0,0,0,3,4.85L754.58,770.15A41.14,41.14,0,1,0,821,721.53ZM496.21,566.59A161,161,0,1,1,708.5,484.14,161,161,0,0,1,496.21,566.59Z"/><circle class="cls-4" cx="219.16" cy="533.69" r="45.61"/><circle class="cls-4" cx="389.67" cy="709.07" r="31.92"/><line class="cls-5" x1="219.16" y1="533.69" x2="365.44" y2="495.67"/><circle class="cls-4" cx="535.66" cy="451.44" r="67.97"/><line class="cls-5" x1="409.84" y1="462.98" x2="577.8" y2="419.33"/><line class="cls-5" x1="496.21" y1="566.59" x2="577.8" y2="419.33"/><line class="cls-5" x1="389.67" y1="709.07" x2="451.2" y2="600.48"/></svg>